<mxfile host="app.diagrams.net" modified="2023-09-21T14:13:18.147Z" agent="Mozilla/5.0 (Windows NT 10.0; Win64; x64) AppleWebKit/537.36 (KHTML, like Gecko) Chrome/112.0.0.0 Safari/537.36" etag="nixCiSo73Da-X1AiHc8S" version="21.8.0" type="device">
  <diagram name="Page-1" id="Rfu0BaaKwuvkg1we4QOZ">
    <mxGraphModel dx="1683" dy="871" grid="0" gridSize="10" guides="1" tooltips="1" connect="1" arrows="0" fold="1" page="0" pageScale="1" pageWidth="850" pageHeight="1100" math="0" shadow="0">
      <root>
        <mxCell id="0" />
        <mxCell id="1" parent="0" />
        <mxCell id="ughghW78LbTsO4b4blCf-1" value="External Layer" style="swimlane;whiteSpace=wrap;html=1;" parent="1" vertex="1">
          <mxGeometry x="40" y="210" width="250" height="470" as="geometry" />
        </mxCell>
        <mxCell id="ughghW78LbTsO4b4blCf-3" value="&lt;b&gt;Sonicwall&lt;br&gt;TZ300Firewall&lt;/b&gt;" style="sketch=0;aspect=fixed;pointerEvents=1;shadow=0;dashed=0;html=1;strokeColor=none;labelPosition=center;verticalLabelPosition=bottom;verticalAlign=top;align=center;fillColor=#00188D;shape=mxgraph.mscae.enterprise.firewall" parent="ughghW78LbTsO4b4blCf-1" vertex="1">
          <mxGeometry x="94" y="37" width="50" height="44" as="geometry" />
        </mxCell>
        <mxCell id="ughghW78LbTsO4b4blCf-4" value="&lt;b&gt;Computer&lt;/b&gt;" style="image;points=[];aspect=fixed;html=1;align=center;shadow=0;dashed=0;image=img/lib/allied_telesis/computer_and_terminals/Personal_Computer.svg;" parent="ughghW78LbTsO4b4blCf-1" vertex="1">
          <mxGeometry x="90" y="340" width="45.6" height="61.800000000000004" as="geometry" />
        </mxCell>
        <mxCell id="ughghW78LbTsO4b4blCf-2" value="&lt;b&gt;Netgear N600&lt;br&gt;Series Router&lt;/b&gt;" style="image;html=1;image=img/lib/clip_art/networking/Wireless_Router_128x128.png" parent="ughghW78LbTsO4b4blCf-1" vertex="1">
          <mxGeometry x="80" y="160" width="80" height="80" as="geometry" />
        </mxCell>
        <mxCell id="ughghW78LbTsO4b4blCf-29" value="" style="endArrow=classic;html=1;rounded=0;startArrow=classic;startFill=1;" parent="ughghW78LbTsO4b4blCf-1" edge="1">
          <mxGeometry width="50" height="50" relative="1" as="geometry">
            <mxPoint x="119.6" y="330" as="sourcePoint" />
            <mxPoint x="120" y="280" as="targetPoint" />
          </mxGeometry>
        </mxCell>
        <mxCell id="ughghW78LbTsO4b4blCf-5" value="&lt;b&gt;Internet&lt;/b&gt;" style="ellipse;shape=cloud;whiteSpace=wrap;html=1;" parent="1" vertex="1">
          <mxGeometry x="220" y="80" width="120" height="80" as="geometry" />
        </mxCell>
        <mxCell id="ughghW78LbTsO4b4blCf-6" value="Web Application Layer" style="swimlane;whiteSpace=wrap;html=1;" parent="1" vertex="1">
          <mxGeometry x="390" y="160" width="580" height="440" as="geometry" />
        </mxCell>
        <mxCell id="ughghW78LbTsO4b4blCf-14" value="&lt;b&gt;Amazon WAF&lt;br&gt;(Web Application Firewall)&lt;/b&gt;" style="image;aspect=fixed;perimeter=ellipsePerimeter;html=1;align=center;shadow=0;dashed=0;spacingTop=3;image=img/lib/active_directory/firewall.svg;" parent="ughghW78LbTsO4b4blCf-6" vertex="1">
          <mxGeometry x="70" y="110.82" width="60" height="98.36" as="geometry" />
        </mxCell>
        <mxCell id="ughghW78LbTsO4b4blCf-52" value="&lt;b&gt;AWS&lt;br&gt;Application Load&lt;br&gt;Balancer&lt;/b&gt;" style="outlineConnect=0;dashed=0;verticalLabelPosition=bottom;verticalAlign=top;align=center;html=1;shape=mxgraph.aws3.application_load_balancer;fillColor=#F58536;gradientColor=none;" parent="ughghW78LbTsO4b4blCf-6" vertex="1">
          <mxGeometry x="220" y="120" width="90" height="80" as="geometry" />
        </mxCell>
        <mxCell id="ughghW78LbTsO4b4blCf-55" value="&lt;b&gt;Amazon&lt;br&gt;RDS&lt;/b&gt;" style="sketch=0;outlineConnect=0;fontColor=#232F3E;gradientColor=none;fillColor=#C925D1;strokeColor=none;dashed=0;verticalLabelPosition=bottom;verticalAlign=top;align=center;html=1;fontSize=12;fontStyle=0;aspect=fixed;pointerEvents=1;shape=mxgraph.aws4.rds_instance;" parent="ughghW78LbTsO4b4blCf-6" vertex="1">
          <mxGeometry x="452" y="306" width="74" height="74" as="geometry" />
        </mxCell>
        <mxCell id="ughghW78LbTsO4b4blCf-32" value="" style="endArrow=classic;startArrow=classic;html=1;rounded=0;exitX=1;exitY=0.5;exitDx=0;exitDy=0;entryX=0;entryY=0.5;entryDx=0;entryDy=0;entryPerimeter=0;" parent="ughghW78LbTsO4b4blCf-6" source="ughghW78LbTsO4b4blCf-14" target="ughghW78LbTsO4b4blCf-52" edge="1">
          <mxGeometry width="50" height="50" relative="1" as="geometry">
            <mxPoint x="140" y="250" as="sourcePoint" />
            <mxPoint x="240" y="250" as="targetPoint" />
          </mxGeometry>
        </mxCell>
        <mxCell id="SFOPmoYdR-mBfS13hCea-3" value="&lt;b&gt;AWS Servers&lt;br&gt;(EC2 instances)&lt;br&gt;&lt;/b&gt;" style="sketch=0;outlineConnect=0;fontColor=#232F3E;gradientColor=none;fillColor=#232F3D;strokeColor=none;dashed=0;verticalLabelPosition=bottom;verticalAlign=top;align=center;html=1;fontSize=12;fontStyle=0;aspect=fixed;pointerEvents=1;shape=mxgraph.aws4.servers;" parent="ughghW78LbTsO4b4blCf-6" vertex="1">
          <mxGeometry x="450" y="121" width="78" height="78" as="geometry" />
        </mxCell>
        <mxCell id="ughghW78LbTsO4b4blCf-57" value="" style="endArrow=classic;startArrow=classic;html=1;rounded=0;exitX=1;exitY=0.5;exitDx=0;exitDy=0;exitPerimeter=0;" parent="ughghW78LbTsO4b4blCf-6" source="ughghW78LbTsO4b4blCf-52" target="SFOPmoYdR-mBfS13hCea-3" edge="1">
          <mxGeometry width="50" height="50" relative="1" as="geometry">
            <mxPoint x="350" y="250" as="sourcePoint" />
            <mxPoint x="430" y="250" as="targetPoint" />
          </mxGeometry>
        </mxCell>
        <mxCell id="ughghW78LbTsO4b4blCf-7" value="&lt;b&gt;Cisco ASA 5506-X&lt;br&gt;Firewall&lt;/b&gt;" style="image;aspect=fixed;perimeter=ellipsePerimeter;html=1;align=center;shadow=0;dashed=0;spacingTop=3;image=img/lib/active_directory/firewall.svg;" parent="1" vertex="1">
          <mxGeometry x="1120" y="160" width="50" height="81.97" as="geometry" />
        </mxCell>
        <mxCell id="ughghW78LbTsO4b4blCf-25" value="Internal Layer" style="swimlane;whiteSpace=wrap;html=1;" parent="1" vertex="1">
          <mxGeometry x="1030" y="320" width="230" height="410" as="geometry" />
        </mxCell>
        <mxCell id="SFOPmoYdR-mBfS13hCea-8" value="Store Account Manager" style="sketch=0;outlineConnect=0;fontColor=#232F3E;gradientColor=none;fillColor=#232F3D;strokeColor=none;dashed=0;verticalLabelPosition=bottom;verticalAlign=top;align=center;html=1;fontSize=12;fontStyle=0;aspect=fixed;pointerEvents=1;shape=mxgraph.aws4.user;" parent="ughghW78LbTsO4b4blCf-25" vertex="1">
          <mxGeometry x="76" y="280" width="78" height="78" as="geometry" />
        </mxCell>
        <mxCell id="SFOPmoYdR-mBfS13hCea-9" value="Subscription Account Manager" style="sketch=0;outlineConnect=0;fontColor=#232F3E;gradientColor=none;fillColor=#232F3D;strokeColor=none;dashed=0;verticalLabelPosition=bottom;verticalAlign=top;align=center;html=1;fontSize=12;fontStyle=0;aspect=fixed;pointerEvents=1;shape=mxgraph.aws4.user;" parent="ughghW78LbTsO4b4blCf-25" vertex="1">
          <mxGeometry x="76" y="50" width="78" height="78" as="geometry" />
        </mxCell>
        <mxCell id="SFOPmoYdR-mBfS13hCea-10" value="Workstation" style="sketch=0;pointerEvents=1;shadow=0;dashed=0;html=1;strokeColor=none;fillColor=#505050;labelPosition=center;verticalLabelPosition=bottom;verticalAlign=top;outlineConnect=0;align=center;shape=mxgraph.office.devices.workstation;" parent="ughghW78LbTsO4b4blCf-25" vertex="1">
          <mxGeometry x="88.5" y="177" width="53" height="56" as="geometry" />
        </mxCell>
        <mxCell id="ughghW78LbTsO4b4blCf-27" value="User" style="shape=umlActor;verticalLabelPosition=bottom;verticalAlign=top;html=1;outlineConnect=0;" parent="1" vertex="1">
          <mxGeometry x="150" y="740" width="30" height="60" as="geometry" />
        </mxCell>
        <mxCell id="ughghW78LbTsO4b4blCf-30" value="" style="endArrow=classic;startArrow=classic;html=1;rounded=0;exitX=0.5;exitY=0;exitDx=0;exitDy=0;" parent="1" source="ughghW78LbTsO4b4blCf-2" edge="1">
          <mxGeometry width="50" height="50" relative="1" as="geometry">
            <mxPoint x="140" y="350" as="sourcePoint" />
            <mxPoint x="160" y="330" as="targetPoint" />
          </mxGeometry>
        </mxCell>
        <mxCell id="ughghW78LbTsO4b4blCf-31" value="" style="endArrow=classic;html=1;rounded=0;exitX=1;exitY=0.5;exitDx=0;exitDy=0;exitPerimeter=0;entryX=0.433;entryY=0.99;entryDx=0;entryDy=0;entryPerimeter=0;startArrow=classic;startFill=1;" parent="1" source="ughghW78LbTsO4b4blCf-3" target="ughghW78LbTsO4b4blCf-5" edge="1">
          <mxGeometry width="50" height="50" relative="1" as="geometry">
            <mxPoint x="230" y="290" as="sourcePoint" />
            <mxPoint x="280" y="240" as="targetPoint" />
            <Array as="points">
              <mxPoint x="270" y="269" />
            </Array>
          </mxGeometry>
        </mxCell>
        <mxCell id="ughghW78LbTsO4b4blCf-34" value="" style="endArrow=classic;html=1;rounded=0;entryX=0;entryY=0.5;entryDx=0;entryDy=0;startArrow=classic;startFill=1;" parent="1" target="ughghW78LbTsO4b4blCf-7" edge="1">
          <mxGeometry width="50" height="50" relative="1" as="geometry">
            <mxPoint x="970" y="200" as="sourcePoint" />
            <mxPoint x="1020" y="130" as="targetPoint" />
            <Array as="points" />
          </mxGeometry>
        </mxCell>
        <mxCell id="ughghW78LbTsO4b4blCf-35" value="" style="endArrow=classic;html=1;rounded=0;entryX=0.5;entryY=0;entryDx=0;entryDy=0;startArrow=classic;startFill=1;" parent="1" target="ughghW78LbTsO4b4blCf-25" edge="1">
          <mxGeometry width="50" height="50" relative="1" as="geometry">
            <mxPoint x="1145" y="290" as="sourcePoint" />
            <mxPoint x="1080" y="300" as="targetPoint" />
          </mxGeometry>
        </mxCell>
        <mxCell id="ughghW78LbTsO4b4blCf-36" value="" style="endArrow=classic;html=1;rounded=0;exitX=0.5;exitY=0;exitDx=0;exitDy=0;exitPerimeter=0;entryX=0.5;entryY=1;entryDx=0;entryDy=0;startArrow=classic;startFill=1;" parent="1" source="ughghW78LbTsO4b4blCf-27" target="ughghW78LbTsO4b4blCf-1" edge="1">
          <mxGeometry width="50" height="50" relative="1" as="geometry">
            <mxPoint x="330" y="810" as="sourcePoint" />
            <mxPoint x="270" y="690" as="targetPoint" />
            <Array as="points" />
          </mxGeometry>
        </mxCell>
        <mxCell id="SFOPmoYdR-mBfS13hCea-2" value="" style="endArrow=classic;startArrow=classic;html=1;rounded=0;exitX=0;exitY=0.5;exitDx=0;exitDy=0;" parent="1" source="ughghW78LbTsO4b4blCf-14" edge="1">
          <mxGeometry width="50" height="50" relative="1" as="geometry">
            <mxPoint x="710" y="390" as="sourcePoint" />
            <mxPoint x="320" y="150" as="targetPoint" />
            <Array as="points">
              <mxPoint x="320" y="320" />
            </Array>
          </mxGeometry>
        </mxCell>
        <mxCell id="SFOPmoYdR-mBfS13hCea-5" value="" style="endArrow=classic;startArrow=classic;html=1;rounded=0;" parent="1" source="ughghW78LbTsO4b4blCf-55" edge="1">
          <mxGeometry width="50" height="50" relative="1" as="geometry">
            <mxPoint x="710" y="390" as="sourcePoint" />
            <mxPoint x="880" y="400" as="targetPoint" />
          </mxGeometry>
        </mxCell>
        <mxCell id="SFOPmoYdR-mBfS13hCea-11" value="" style="endArrow=classic;startArrow=classic;html=1;rounded=0;" parent="1" edge="1">
          <mxGeometry width="50" height="50" relative="1" as="geometry">
            <mxPoint x="1144" y="490" as="sourcePoint" />
            <mxPoint x="1144" y="470" as="targetPoint" />
          </mxGeometry>
        </mxCell>
        <mxCell id="SFOPmoYdR-mBfS13hCea-12" value="" style="endArrow=classic;startArrow=classic;html=1;rounded=0;" parent="1" edge="1">
          <mxGeometry width="50" height="50" relative="1" as="geometry">
            <mxPoint x="1144" y="596" as="sourcePoint" />
            <mxPoint x="1144" y="576" as="targetPoint" />
          </mxGeometry>
        </mxCell>
      </root>
    </mxGraphModel>
  </diagram>
</mxfile>
